<mxfile host="app.diagrams.net" modified="2021-03-17T14:07:35.829Z" agent="5.0 (Windows NT 10.0; Win64; x64) AppleWebKit/537.36 (KHTML, like Gecko) Chrome/89.0.4389.90 Safari/537.36" etag="QbEOV3FuQIhTBT0_3y0Q" version="14.4.8" type="github" pages="3">
  <diagram id="4QgmK_E6MaeBo4CaiiAG" name="Delovi">
    <mxGraphModel dx="2512" dy="766" grid="1" gridSize="10" guides="1" tooltips="1" connect="1" arrows="1" fold="1" page="1" pageScale="1" pageWidth="850" pageHeight="1100" math="0" shadow="0">
      <root>
        <mxCell id="0" />
        <mxCell id="1" parent="0" />
        <mxCell id="gTAFWl6Fbv0SWskXVmsy-3" value="DEO" style="whiteSpace=wrap;html=1;align=center;" parent="1" vertex="1">
          <mxGeometry x="150" y="120" width="100" height="40" as="geometry" />
        </mxCell>
        <mxCell id="gTAFWl6Fbv0SWskXVmsy-4" value="&lt;u&gt;OZNDEO&lt;/u&gt;" style="ellipse;whiteSpace=wrap;html=1;align=center;" parent="1" vertex="1">
          <mxGeometry x="30" y="20" width="100" height="40" as="geometry" />
        </mxCell>
        <mxCell id="gTAFWl6Fbv0SWskXVmsy-6" value="" style="endArrow=none;html=1;entryX=0.5;entryY=0;entryDx=0;entryDy=0;" parent="1" source="gTAFWl6Fbv0SWskXVmsy-4" target="gTAFWl6Fbv0SWskXVmsy-3" edge="1">
          <mxGeometry width="50" height="50" relative="1" as="geometry">
            <mxPoint x="50" y="90" as="sourcePoint" />
            <mxPoint x="50" y="110.71067811865476" as="targetPoint" />
          </mxGeometry>
        </mxCell>
        <mxCell id="gTAFWl6Fbv0SWskXVmsy-9" value="NAZDEO" style="ellipse;whiteSpace=wrap;html=1;align=center;" parent="1" vertex="1">
          <mxGeometry y="80" width="100" height="40" as="geometry" />
        </mxCell>
        <mxCell id="gTAFWl6Fbv0SWskXVmsy-10" value="" style="endArrow=none;html=1;entryX=0;entryY=0.75;entryDx=0;entryDy=0;" parent="1" source="gTAFWl6Fbv0SWskXVmsy-9" target="gTAFWl6Fbv0SWskXVmsy-3" edge="1">
          <mxGeometry width="50" height="50" relative="1" as="geometry">
            <mxPoint x="340" y="110" as="sourcePoint" />
            <mxPoint x="340" y="130.71067811865476" as="targetPoint" />
          </mxGeometry>
        </mxCell>
        <mxCell id="gTAFWl6Fbv0SWskXVmsy-19" value="DOBAVLJAC" style="whiteSpace=wrap;html=1;align=center;" parent="1" vertex="1">
          <mxGeometry x="560" y="370" width="100" height="40" as="geometry" />
        </mxCell>
        <mxCell id="gTAFWl6Fbv0SWskXVmsy-22" value="NAZDOB" style="ellipse;whiteSpace=wrap;html=1;align=center;" parent="1" vertex="1">
          <mxGeometry x="700" y="380" width="100" height="40" as="geometry" />
        </mxCell>
        <mxCell id="gTAFWl6Fbv0SWskXVmsy-23" value="" style="endArrow=none;html=1;" parent="1" source="gTAFWl6Fbv0SWskXVmsy-22" target="gTAFWl6Fbv0SWskXVmsy-19" edge="1">
          <mxGeometry width="50" height="50" relative="1" as="geometry">
            <mxPoint x="600" y="100" as="sourcePoint" />
            <mxPoint x="600" y="120.71067811865476" as="targetPoint" />
          </mxGeometry>
        </mxCell>
        <mxCell id="gTAFWl6Fbv0SWskXVmsy-24" value="&lt;u&gt;IDDOB&lt;/u&gt;" style="ellipse;whiteSpace=wrap;html=1;align=center;" parent="1" vertex="1">
          <mxGeometry x="670" y="300" width="100" height="40" as="geometry" />
        </mxCell>
        <mxCell id="gTAFWl6Fbv0SWskXVmsy-25" value="" style="endArrow=none;html=1;entryX=0.5;entryY=0;entryDx=0;entryDy=0;" parent="1" source="gTAFWl6Fbv0SWskXVmsy-24" target="gTAFWl6Fbv0SWskXVmsy-19" edge="1">
          <mxGeometry width="50" height="50" relative="1" as="geometry">
            <mxPoint x="740" y="120" as="sourcePoint" />
            <mxPoint x="740" y="140.71067811865476" as="targetPoint" />
          </mxGeometry>
        </mxCell>
        <mxCell id="gTAFWl6Fbv0SWskXVmsy-27" value="dom(TIPDEO) = {proizvodi_se, kupuje_se, proizvodi_se_i_kupuje_se}&amp;nbsp;" style="text;html=1;strokeColor=none;fillColor=none;align=center;verticalAlign=middle;whiteSpace=wrap;rounded=0;" parent="1" vertex="1">
          <mxGeometry x="5" y="200" width="150" height="30" as="geometry" />
        </mxCell>
        <mxCell id="gTAFWl6Fbv0SWskXVmsy-38" value="ima_komponente" style="edgeStyle=orthogonalEdgeStyle;rounded=0;orthogonalLoop=1;jettySize=auto;html=1;entryX=1;entryY=0.25;entryDx=0;entryDy=0;exitX=0.5;exitY=0;exitDx=0;exitDy=0;" parent="1" source="gTAFWl6Fbv0SWskXVmsy-33" target="gTAFWl6Fbv0SWskXVmsy-3" edge="1">
          <mxGeometry x="0.4073" y="-10" relative="1" as="geometry">
            <mxPoint x="-1" as="offset" />
          </mxGeometry>
        </mxCell>
        <mxCell id="gTAFWl6Fbv0SWskXVmsy-49" value="je_komponenta" style="edgeStyle=orthogonalEdgeStyle;rounded=0;orthogonalLoop=1;jettySize=auto;html=1;entryX=0.931;entryY=1.069;entryDx=0;entryDy=0;entryPerimeter=0;" parent="1" source="gTAFWl6Fbv0SWskXVmsy-33" target="gTAFWl6Fbv0SWskXVmsy-3" edge="1">
          <mxGeometry x="-0.5324" y="10" relative="1" as="geometry">
            <mxPoint as="offset" />
          </mxGeometry>
        </mxCell>
        <mxCell id="gTAFWl6Fbv0SWskXVmsy-33" value="sastoji" style="shape=rhombus;perimeter=rhombusPerimeter;whiteSpace=wrap;html=1;align=center;" parent="1" vertex="1">
          <mxGeometry x="350" y="240" width="120" height="60" as="geometry" />
        </mxCell>
        <mxCell id="gTAFWl6Fbv0SWskXVmsy-40" value="KOLICINA" style="ellipse;whiteSpace=wrap;html=1;align=center;" parent="1" vertex="1">
          <mxGeometry x="440" y="110" width="100" height="40" as="geometry" />
        </mxCell>
        <mxCell id="gTAFWl6Fbv0SWskXVmsy-41" value="" style="endArrow=none;html=1;entryX=0.5;entryY=1;entryDx=0;entryDy=0;" parent="1" source="gTAFWl6Fbv0SWskXVmsy-33" target="gTAFWl6Fbv0SWskXVmsy-40" edge="1">
          <mxGeometry width="50" height="50" relative="1" as="geometry">
            <mxPoint x="470" y="320" as="sourcePoint" />
            <mxPoint x="540.7106781186548" y="270" as="targetPoint" />
          </mxGeometry>
        </mxCell>
        <mxCell id="gTAFWl6Fbv0SWskXVmsy-42" value="(0, N)" style="text;html=1;strokeColor=none;fillColor=none;align=center;verticalAlign=middle;whiteSpace=wrap;rounded=0;" parent="1" vertex="1">
          <mxGeometry x="260" y="130" width="40" height="20" as="geometry" />
        </mxCell>
        <mxCell id="gTAFWl6Fbv0SWskXVmsy-45" style="edgeStyle=orthogonalEdgeStyle;rounded=0;orthogonalLoop=1;jettySize=auto;html=1;entryX=0.5;entryY=1;entryDx=0;entryDy=0;" parent="1" source="gTAFWl6Fbv0SWskXVmsy-44" target="gTAFWl6Fbv0SWskXVmsy-19" edge="1">
          <mxGeometry relative="1" as="geometry" />
        </mxCell>
        <mxCell id="gTAFWl6Fbv0SWskXVmsy-46" style="edgeStyle=orthogonalEdgeStyle;rounded=0;orthogonalLoop=1;jettySize=auto;html=1;entryX=1;entryY=0.5;entryDx=0;entryDy=0;" parent="1" source="gTAFWl6Fbv0SWskXVmsy-44" target="gTAFWl6Fbv0SWskXVmsy-62" edge="1">
          <mxGeometry relative="1" as="geometry" />
        </mxCell>
        <mxCell id="gTAFWl6Fbv0SWskXVmsy-44" value="dobavlja" style="shape=rhombus;perimeter=rhombusPerimeter;whiteSpace=wrap;html=1;align=center;" parent="1" vertex="1">
          <mxGeometry x="400" y="400" width="120" height="60" as="geometry" />
        </mxCell>
        <mxCell id="gTAFWl6Fbv0SWskXVmsy-47" value="(0, 1)" style="text;html=1;strokeColor=none;fillColor=none;align=center;verticalAlign=middle;whiteSpace=wrap;rounded=0;" parent="1" vertex="1">
          <mxGeometry x="320" y="400" width="40" height="20" as="geometry" />
        </mxCell>
        <mxCell id="gTAFWl6Fbv0SWskXVmsy-48" value="(0, N)" style="text;html=1;strokeColor=none;fillColor=none;align=center;verticalAlign=middle;whiteSpace=wrap;rounded=0;" parent="1" vertex="1">
          <mxGeometry x="580" y="440" width="40" height="20" as="geometry" />
        </mxCell>
        <mxCell id="gTAFWl6Fbv0SWskXVmsy-67" style="edgeStyle=orthogonalEdgeStyle;rounded=0;orthogonalLoop=1;jettySize=auto;html=1;entryX=0.5;entryY=1;entryDx=0;entryDy=0;" parent="1" source="gTAFWl6Fbv0SWskXVmsy-61" target="gTAFWl6Fbv0SWskXVmsy-3" edge="1">
          <mxGeometry relative="1" as="geometry" />
        </mxCell>
        <mxCell id="gTAFWl6Fbv0SWskXVmsy-61" value="IS - a" style="shape=rhombus;double=1;perimeter=rhombusPerimeter;whiteSpace=wrap;html=1;align=center;" parent="1" vertex="1">
          <mxGeometry x="100" y="310" width="120" height="60" as="geometry" />
        </mxCell>
        <mxCell id="gTAFWl6Fbv0SWskXVmsy-62" value="DOBAVLJANI" style="shape=ext;margin=3;double=1;whiteSpace=wrap;html=1;align=center;" parent="1" vertex="1">
          <mxGeometry x="200" y="410" width="100" height="40" as="geometry" />
        </mxCell>
        <mxCell id="gTAFWl6Fbv0SWskXVmsy-63" value="PROIZVODE" style="shape=ext;margin=3;double=1;whiteSpace=wrap;html=1;align=center;" parent="1" vertex="1">
          <mxGeometry x="20" y="410" width="100" height="40" as="geometry" />
        </mxCell>
        <mxCell id="gTAFWl6Fbv0SWskXVmsy-65" value="" style="shape=flexArrow;endArrow=classic;html=1;entryX=0.5;entryY=0;entryDx=0;entryDy=0;" parent="1" target="gTAFWl6Fbv0SWskXVmsy-62" edge="1">
          <mxGeometry width="50" height="50" relative="1" as="geometry">
            <mxPoint x="160" y="370" as="sourcePoint" />
            <mxPoint x="290.71067811865476" y="340" as="targetPoint" />
            <Array as="points">
              <mxPoint x="250" y="370" />
            </Array>
          </mxGeometry>
        </mxCell>
        <mxCell id="gTAFWl6Fbv0SWskXVmsy-66" value="" style="shape=flexArrow;endArrow=classic;html=1;exitX=0.5;exitY=1;exitDx=0;exitDy=0;" parent="1" source="gTAFWl6Fbv0SWskXVmsy-61" edge="1">
          <mxGeometry width="50" height="50" relative="1" as="geometry">
            <mxPoint x="108" y="340" as="sourcePoint" />
            <mxPoint x="70" y="410" as="targetPoint" />
            <Array as="points">
              <mxPoint x="70" y="370" />
            </Array>
          </mxGeometry>
        </mxCell>
        <mxCell id="gTAFWl6Fbv0SWskXVmsy-68" value="(1, N)" style="text;html=1;strokeColor=none;fillColor=none;align=center;verticalAlign=middle;whiteSpace=wrap;rounded=0;" parent="1" vertex="1">
          <mxGeometry x="160" y="160" width="40" height="20" as="geometry" />
        </mxCell>
        <mxCell id="gTAFWl6Fbv0SWskXVmsy-69" value="ORGJED" style="ellipse;whiteSpace=wrap;html=1;align=center;" parent="1" vertex="1">
          <mxGeometry x="-5" y="515" width="100" height="40" as="geometry" />
        </mxCell>
        <mxCell id="gTAFWl6Fbv0SWskXVmsy-70" value="" style="endArrow=none;html=1;entryX=0.5;entryY=1;entryDx=0;entryDy=0;" parent="1" source="gTAFWl6Fbv0SWskXVmsy-69" target="gTAFWl6Fbv0SWskXVmsy-63" edge="1">
          <mxGeometry width="50" height="50" relative="1" as="geometry">
            <mxPoint x="335" y="545" as="sourcePoint" />
            <mxPoint x="145" y="585" as="targetPoint" />
          </mxGeometry>
        </mxCell>
        <mxCell id="gTAFWl6Fbv0SWskXVmsy-73" value="TIPDEO" style="ellipse;whiteSpace=wrap;html=1;align=center;" parent="1" vertex="1">
          <mxGeometry x="-20" y="150" width="100" height="40" as="geometry" />
        </mxCell>
        <mxCell id="gTAFWl6Fbv0SWskXVmsy-74" value="" style="endArrow=none;html=1;entryX=0.5;entryY=0;entryDx=0;entryDy=0;" parent="1" source="gTAFWl6Fbv0SWskXVmsy-73" target="gTAFWl6Fbv0SWskXVmsy-68" edge="1">
          <mxGeometry width="50" height="50" relative="1" as="geometry">
            <mxPoint x="320" y="180" as="sourcePoint" />
            <mxPoint x="130" y="220" as="targetPoint" />
          </mxGeometry>
        </mxCell>
        <mxCell id="gTAFWl6Fbv0SWskXVmsy-75" value="&lt;span style=&quot;color: rgb(0, 0, 0); font-family: helvetica; font-size: 12px; font-style: normal; font-weight: 400; letter-spacing: normal; text-align: center; text-indent: 0px; text-transform: none; word-spacing: 0px; background-color: rgb(248, 249, 250); display: inline; float: none;&quot;&gt;TIPDEO&lt;/span&gt;" style="text;whiteSpace=wrap;html=1;" parent="1" vertex="1">
          <mxGeometry x="230" y="325" width="70" height="30" as="geometry" />
        </mxCell>
        <mxCell id="4D9EzU_ZLw3LFbes1cyo-1" value="(0, M)" style="text;html=1;strokeColor=none;fillColor=none;align=center;verticalAlign=middle;whiteSpace=wrap;rounded=0;" parent="1" vertex="1">
          <mxGeometry x="250" y="170" width="40" height="20" as="geometry" />
        </mxCell>
      </root>
    </mxGraphModel>
  </diagram>
  <diagram id="-ay685PkzrLm5GVWUZSy" name="Letovi">
    <mxGraphModel dx="1662" dy="766" grid="1" gridSize="10" guides="1" tooltips="1" connect="1" arrows="1" fold="1" page="1" pageScale="1" pageWidth="850" pageHeight="1100" math="0" shadow="0">
      <root>
        <mxCell id="TX_zvMddl1gVQJlivaQw-0" />
        <mxCell id="TX_zvMddl1gVQJlivaQw-1" parent="TX_zvMddl1gVQJlivaQw-0" />
        <mxCell id="TX_zvMddl1gVQJlivaQw-2" value="PILOT" style="whiteSpace=wrap;html=1;align=center;" parent="TX_zvMddl1gVQJlivaQw-1" vertex="1">
          <mxGeometry x="160" y="110" width="100" height="40" as="geometry" />
        </mxCell>
        <mxCell id="TX_zvMddl1gVQJlivaQw-3" value="przplt" style="ellipse;whiteSpace=wrap;html=1;align=center;" parent="TX_zvMddl1gVQJlivaQw-1" vertex="1">
          <mxGeometry x="10" y="150" width="100" height="40" as="geometry" />
        </mxCell>
        <mxCell id="TX_zvMddl1gVQJlivaQw-4" value="imeplt" style="ellipse;whiteSpace=wrap;html=1;align=center;" parent="TX_zvMddl1gVQJlivaQw-1" vertex="1">
          <mxGeometry x="20" y="70" width="100" height="40" as="geometry" />
        </mxCell>
        <mxCell id="TX_zvMddl1gVQJlivaQw-5" value="&lt;u&gt;idplt&lt;/u&gt;" style="ellipse;whiteSpace=wrap;html=1;align=center;" parent="TX_zvMddl1gVQJlivaQw-1" vertex="1">
          <mxGeometry x="80" y="20" width="100" height="40" as="geometry" />
        </mxCell>
        <mxCell id="TX_zvMddl1gVQJlivaQw-7" value="TIP AVIONA" style="whiteSpace=wrap;html=1;align=center;" parent="TX_zvMddl1gVQJlivaQw-1" vertex="1">
          <mxGeometry x="490" y="110" width="100" height="40" as="geometry" />
        </mxCell>
        <mxCell id="TX_zvMddl1gVQJlivaQw-8" value="naztav" style="ellipse;whiteSpace=wrap;html=1;align=center;" parent="TX_zvMddl1gVQJlivaQw-1" vertex="1">
          <mxGeometry x="550" y="170" width="100" height="40" as="geometry" />
        </mxCell>
        <mxCell id="TX_zvMddl1gVQJlivaQw-9" value="&lt;u&gt;idtav&lt;/u&gt;" style="ellipse;whiteSpace=wrap;html=1;align=center;" parent="TX_zvMddl1gVQJlivaQw-1" vertex="1">
          <mxGeometry x="560" y="20" width="100" height="40" as="geometry" />
        </mxCell>
        <mxCell id="TX_zvMddl1gVQJlivaQw-10" value="LET" style="whiteSpace=wrap;html=1;align=center;" parent="TX_zvMddl1gVQJlivaQw-1" vertex="1">
          <mxGeometry x="140" y="300" width="100" height="40" as="geometry" />
        </mxCell>
        <mxCell id="TX_zvMddl1gVQJlivaQw-11" value="&lt;u&gt;idlet&lt;/u&gt;" style="ellipse;whiteSpace=wrap;html=1;align=center;" parent="TX_zvMddl1gVQJlivaQw-1" vertex="1">
          <mxGeometry x="10" y="250" width="100" height="40" as="geometry" />
        </mxCell>
        <mxCell id="TX_zvMddl1gVQJlivaQw-12" value="opis_leta" style="ellipse;whiteSpace=wrap;html=1;align=center;" parent="TX_zvMddl1gVQJlivaQw-1" vertex="1">
          <mxGeometry x="10" y="320" width="100" height="40" as="geometry" />
        </mxCell>
        <mxCell id="TX_zvMddl1gVQJlivaQw-14" value="" style="endArrow=none;html=1;entryX=0.5;entryY=0;entryDx=0;entryDy=0;" parent="TX_zvMddl1gVQJlivaQw-1" source="TX_zvMddl1gVQJlivaQw-5" target="TX_zvMddl1gVQJlivaQw-2" edge="1">
          <mxGeometry width="50" height="50" relative="1" as="geometry">
            <mxPoint x="130" y="110" as="sourcePoint" />
            <mxPoint x="130" y="130.71067811865476" as="targetPoint" />
          </mxGeometry>
        </mxCell>
        <mxCell id="TX_zvMddl1gVQJlivaQw-15" value="" style="endArrow=none;html=1;entryX=0;entryY=0.5;entryDx=0;entryDy=0;" parent="TX_zvMddl1gVQJlivaQw-1" source="TX_zvMddl1gVQJlivaQw-4" target="TX_zvMddl1gVQJlivaQw-2" edge="1">
          <mxGeometry width="50" height="50" relative="1" as="geometry">
            <mxPoint x="120" y="140" as="sourcePoint" />
            <mxPoint x="190.71067811865476" y="90" as="targetPoint" />
          </mxGeometry>
        </mxCell>
        <mxCell id="TX_zvMddl1gVQJlivaQw-16" value="" style="endArrow=none;html=1;entryX=0.5;entryY=1;entryDx=0;entryDy=0;" parent="TX_zvMddl1gVQJlivaQw-1" source="TX_zvMddl1gVQJlivaQw-3" target="TX_zvMddl1gVQJlivaQw-2" edge="1">
          <mxGeometry width="50" height="50" relative="1" as="geometry">
            <mxPoint x="110" y="220" as="sourcePoint" />
            <mxPoint x="180.71067811865476" y="170" as="targetPoint" />
          </mxGeometry>
        </mxCell>
        <mxCell id="TX_zvMddl1gVQJlivaQw-17" value="" style="endArrow=none;html=1;entryX=0.5;entryY=0;entryDx=0;entryDy=0;" parent="TX_zvMddl1gVQJlivaQw-1" source="TX_zvMddl1gVQJlivaQw-11" target="TX_zvMddl1gVQJlivaQw-10" edge="1">
          <mxGeometry width="50" height="50" relative="1" as="geometry">
            <mxPoint x="110" y="320" as="sourcePoint" />
            <mxPoint x="180.71067811865476" y="270" as="targetPoint" />
          </mxGeometry>
        </mxCell>
        <mxCell id="TX_zvMddl1gVQJlivaQw-18" value="" style="endArrow=none;html=1;entryX=0;entryY=0.5;entryDx=0;entryDy=0;" parent="TX_zvMddl1gVQJlivaQw-1" source="TX_zvMddl1gVQJlivaQw-12" target="TX_zvMddl1gVQJlivaQw-10" edge="1">
          <mxGeometry width="50" height="50" relative="1" as="geometry">
            <mxPoint x="110" y="390" as="sourcePoint" />
            <mxPoint x="180.71067811865476" y="340" as="targetPoint" />
          </mxGeometry>
        </mxCell>
        <mxCell id="TX_zvMddl1gVQJlivaQw-19" value="" style="endArrow=none;html=1;entryX=0.5;entryY=0;entryDx=0;entryDy=0;" parent="TX_zvMddl1gVQJlivaQw-1" source="TX_zvMddl1gVQJlivaQw-9" target="TX_zvMddl1gVQJlivaQw-7" edge="1">
          <mxGeometry width="50" height="50" relative="1" as="geometry">
            <mxPoint x="610" y="110" as="sourcePoint" />
            <mxPoint x="610" y="130.71067811865476" as="targetPoint" />
          </mxGeometry>
        </mxCell>
        <mxCell id="TX_zvMddl1gVQJlivaQw-20" value="" style="endArrow=none;html=1;entryX=0.5;entryY=1;entryDx=0;entryDy=0;" parent="TX_zvMddl1gVQJlivaQw-1" source="TX_zvMddl1gVQJlivaQw-8" target="TX_zvMddl1gVQJlivaQw-7" edge="1">
          <mxGeometry width="50" height="50" relative="1" as="geometry">
            <mxPoint x="539.2893218813452" y="210" as="sourcePoint" />
            <mxPoint x="539.2893218813452" y="160" as="targetPoint" />
          </mxGeometry>
        </mxCell>
        <mxCell id="TX_zvMddl1gVQJlivaQw-23" value="(1, M)" style="edgeStyle=orthogonalEdgeStyle;rounded=0;orthogonalLoop=1;jettySize=auto;html=1;entryX=0;entryY=0.5;entryDx=0;entryDy=0;" parent="TX_zvMddl1gVQJlivaQw-1" target="TX_zvMddl1gVQJlivaQw-7" edge="1">
          <mxGeometry x="0.0769" y="10" relative="1" as="geometry">
            <mxPoint x="425" y="130" as="sourcePoint" />
            <mxPoint as="offset" />
          </mxGeometry>
        </mxCell>
        <mxCell id="TX_zvMddl1gVQJlivaQw-26" value="(1, N)" style="edgeStyle=orthogonalEdgeStyle;rounded=0;orthogonalLoop=1;jettySize=auto;html=1;entryX=0.25;entryY=1;entryDx=0;entryDy=0;exitX=1;exitY=0.5;exitDx=0;exitDy=0;" parent="TX_zvMddl1gVQJlivaQw-1" source="TX_zvMddl1gVQJlivaQw-28" target="TX_zvMddl1gVQJlivaQw-7" edge="1">
          <mxGeometry x="0.8298" y="15" relative="1" as="geometry">
            <mxPoint x="450" y="320" as="sourcePoint" />
            <mxPoint as="offset" />
          </mxGeometry>
        </mxCell>
        <mxCell id="TX_zvMddl1gVQJlivaQw-27" value="(1, 1)" style="edgeStyle=orthogonalEdgeStyle;rounded=0;orthogonalLoop=1;jettySize=auto;html=1;entryX=1;entryY=0.5;entryDx=0;entryDy=0;exitX=0;exitY=0.5;exitDx=0;exitDy=0;" parent="TX_zvMddl1gVQJlivaQw-1" source="TX_zvMddl1gVQJlivaQw-28" target="TX_zvMddl1gVQJlivaQw-10" edge="1">
          <mxGeometry x="0.5556" y="-10" relative="1" as="geometry">
            <mxPoint x="330" y="320" as="sourcePoint" />
            <mxPoint as="offset" />
          </mxGeometry>
        </mxCell>
        <mxCell id="TX_zvMddl1gVQJlivaQw-28" value="obavlja" style="shape=associativeEntity;whiteSpace=wrap;html=1;align=center;" parent="TX_zvMddl1gVQJlivaQw-1" vertex="1">
          <mxGeometry x="292.5" y="290" width="140" height="60" as="geometry" />
        </mxCell>
        <mxCell id="TX_zvMddl1gVQJlivaQw-32" value="(0, N)" style="edgeStyle=orthogonalEdgeStyle;rounded=0;orthogonalLoop=1;jettySize=auto;html=1;entryX=0.5;entryY=1;entryDx=0;entryDy=0;" parent="TX_zvMddl1gVQJlivaQw-1" source="TX_zvMddl1gVQJlivaQw-29" target="TX_zvMddl1gVQJlivaQw-35" edge="1">
          <mxGeometry x="0.8505" y="-19" relative="1" as="geometry">
            <mxPoint as="offset" />
          </mxGeometry>
        </mxCell>
        <mxCell id="TX_zvMddl1gVQJlivaQw-33" value="(1, M)" style="edgeStyle=orthogonalEdgeStyle;rounded=0;orthogonalLoop=1;jettySize=auto;html=1;entryX=0.5;entryY=0;entryDx=0;entryDy=0;" parent="TX_zvMddl1gVQJlivaQw-1" source="TX_zvMddl1gVQJlivaQw-29" target="TX_zvMddl1gVQJlivaQw-28" edge="1">
          <mxGeometry x="-0.1818" y="15" relative="1" as="geometry">
            <mxPoint x="390" y="280" as="targetPoint" />
            <mxPoint as="offset" />
          </mxGeometry>
        </mxCell>
        <mxCell id="TX_zvMddl1gVQJlivaQw-29" value="leti" style="shape=rhombus;perimeter=rhombusPerimeter;whiteSpace=wrap;html=1;align=center;" parent="TX_zvMddl1gVQJlivaQw-1" vertex="1">
          <mxGeometry x="302.5" y="200" width="120" height="60" as="geometry" />
        </mxCell>
        <mxCell id="TX_zvMddl1gVQJlivaQw-56" style="edgeStyle=orthogonalEdgeStyle;rounded=0;orthogonalLoop=1;jettySize=auto;html=1;entryX=1;entryY=0.5;entryDx=0;entryDy=0;" parent="TX_zvMddl1gVQJlivaQw-1" source="TX_zvMddl1gVQJlivaQw-35" target="TX_zvMddl1gVQJlivaQw-2" edge="1">
          <mxGeometry relative="1" as="geometry" />
        </mxCell>
        <mxCell id="TX_zvMddl1gVQJlivaQw-35" value="angazovan" style="shape=associativeEntity;whiteSpace=wrap;html=1;align=center;" parent="TX_zvMddl1gVQJlivaQw-1" vertex="1">
          <mxGeometry x="307.5" y="100" width="125" height="60" as="geometry" />
        </mxCell>
        <mxCell id="TX_zvMddl1gVQJlivaQw-40" style="edgeStyle=orthogonalEdgeStyle;rounded=0;orthogonalLoop=1;jettySize=auto;html=1;" parent="TX_zvMddl1gVQJlivaQw-1" source="TX_zvMddl1gVQJlivaQw-36" target="TX_zvMddl1gVQJlivaQw-2" edge="1">
          <mxGeometry relative="1" as="geometry" />
        </mxCell>
        <mxCell id="TX_zvMddl1gVQJlivaQw-41" style="edgeStyle=orthogonalEdgeStyle;rounded=0;orthogonalLoop=1;jettySize=auto;html=1;entryX=0.5;entryY=0;entryDx=0;entryDy=0;" parent="TX_zvMddl1gVQJlivaQw-1" source="TX_zvMddl1gVQJlivaQw-36" target="TX_zvMddl1gVQJlivaQw-10" edge="1">
          <mxGeometry relative="1" as="geometry" />
        </mxCell>
        <mxCell id="TX_zvMddl1gVQJlivaQw-36" value="je_sef" style="shape=rhombus;perimeter=rhombusPerimeter;whiteSpace=wrap;html=1;align=center;direction=west;" parent="TX_zvMddl1gVQJlivaQw-1" vertex="1">
          <mxGeometry x="150" y="200" width="120" height="60" as="geometry" />
        </mxCell>
        <mxCell id="TX_zvMddl1gVQJlivaQw-42" value="dat_ras" style="ellipse;whiteSpace=wrap;html=1;align=center;" parent="TX_zvMddl1gVQJlivaQw-1" vertex="1">
          <mxGeometry x="240" y="160" width="100" height="40" as="geometry" />
        </mxCell>
        <mxCell id="TX_zvMddl1gVQJlivaQw-44" value="" style="endArrow=none;html=1;entryX=0.5;entryY=1;entryDx=0;entryDy=0;exitX=0;exitY=1;exitDx=0;exitDy=0;" parent="TX_zvMddl1gVQJlivaQw-1" source="TX_zvMddl1gVQJlivaQw-36" target="TX_zvMddl1gVQJlivaQw-42" edge="1">
          <mxGeometry width="50" height="50" relative="1" as="geometry">
            <mxPoint x="320" y="230" as="sourcePoint" />
            <mxPoint x="370" y="180" as="targetPoint" />
          </mxGeometry>
        </mxCell>
        <mxCell id="TX_zvMddl1gVQJlivaQw-45" value="(0, N)" style="text;html=1;strokeColor=none;fillColor=none;align=center;verticalAlign=middle;whiteSpace=wrap;rounded=0;" parent="TX_zvMddl1gVQJlivaQw-1" vertex="1">
          <mxGeometry x="170" y="160" width="40" height="20" as="geometry" />
        </mxCell>
        <mxCell id="TX_zvMddl1gVQJlivaQw-46" value="(1, 1)" style="text;html=1;strokeColor=none;fillColor=none;align=center;verticalAlign=middle;whiteSpace=wrap;rounded=0;" parent="TX_zvMddl1gVQJlivaQw-1" vertex="1">
          <mxGeometry x="200" y="280" width="40" height="20" as="geometry" />
        </mxCell>
        <mxCell id="TX_zvMddl1gVQJlivaQw-48" value="brstav" style="ellipse;whiteSpace=wrap;html=1;align=center;" parent="TX_zvMddl1gVQJlivaQw-1" vertex="1">
          <mxGeometry x="332.5" y="10" width="100" height="40" as="geometry" />
        </mxCell>
        <mxCell id="TX_zvMddl1gVQJlivaQw-51" value="" style="endArrow=none;html=1;entryX=0.5;entryY=0;entryDx=0;entryDy=0;" parent="TX_zvMddl1gVQJlivaQw-1" source="TX_zvMddl1gVQJlivaQw-48" target="TX_zvMddl1gVQJlivaQw-35" edge="1">
          <mxGeometry width="50" height="50" relative="1" as="geometry">
            <mxPoint x="382.5" y="100" as="sourcePoint" />
            <mxPoint x="382.5" y="120.71067811865476" as="targetPoint" />
          </mxGeometry>
        </mxCell>
        <mxCell id="TX_zvMddl1gVQJlivaQw-53" value="brsati" style="ellipse;whiteSpace=wrap;html=1;align=center;" parent="TX_zvMddl1gVQJlivaQw-1" vertex="1">
          <mxGeometry x="400" y="170" width="100" height="40" as="geometry" />
        </mxCell>
        <mxCell id="TX_zvMddl1gVQJlivaQw-54" value="" style="endArrow=none;html=1;entryX=1;entryY=0.5;entryDx=0;entryDy=0;" parent="TX_zvMddl1gVQJlivaQw-1" source="TX_zvMddl1gVQJlivaQw-53" target="TX_zvMddl1gVQJlivaQw-29" edge="1">
          <mxGeometry width="50" height="50" relative="1" as="geometry">
            <mxPoint x="450" y="260" as="sourcePoint" />
            <mxPoint x="450" y="280.71067811865476" as="targetPoint" />
          </mxGeometry>
        </mxCell>
        <mxCell id="TX_zvMddl1gVQJlivaQw-57" value="(0, N)" style="text;html=1;strokeColor=none;fillColor=none;align=center;verticalAlign=middle;whiteSpace=wrap;rounded=0;" parent="TX_zvMddl1gVQJlivaQw-1" vertex="1">
          <mxGeometry x="260" y="110" width="40" height="20" as="geometry" />
        </mxCell>
      </root>
    </mxGraphModel>
  </diagram>
  <diagram id="unB53T29m_kvpygn8hCU" name="Apoteka">
    <mxGraphModel dx="2512" dy="766" grid="1" gridSize="10" guides="1" tooltips="1" connect="1" arrows="1" fold="1" page="1" pageScale="1" pageWidth="850" pageHeight="1100" math="0" shadow="0">
      <root>
        <mxCell id="eqqeCOTNaoZ__6hZ0gpq-0" />
        <mxCell id="eqqeCOTNaoZ__6hZ0gpq-1" parent="eqqeCOTNaoZ__6hZ0gpq-0" />
        <mxCell id="eqqeCOTNaoZ__6hZ0gpq-2" value="FARMACEUTSKA KOMPANIJA" style="whiteSpace=wrap;html=1;align=center;" vertex="1" parent="eqqeCOTNaoZ__6hZ0gpq-1">
          <mxGeometry x="95" y="170" width="110" height="50" as="geometry" />
        </mxCell>
        <mxCell id="-cbBbG7olf2igC_2fDJn-0" value="APOTEKA" style="whiteSpace=wrap;html=1;align=center;" vertex="1" parent="eqqeCOTNaoZ__6hZ0gpq-1">
          <mxGeometry x="450" y="175" width="100" height="40" as="geometry" />
        </mxCell>
        <mxCell id="Ve-cWkL2a4EjSi6m4Jqw-0" style="edgeStyle=orthogonalEdgeStyle;rounded=0;orthogonalLoop=1;jettySize=auto;html=1;" edge="1" parent="eqqeCOTNaoZ__6hZ0gpq-1" source="-cbBbG7olf2igC_2fDJn-1" target="eqqeCOTNaoZ__6hZ0gpq-2">
          <mxGeometry relative="1" as="geometry" />
        </mxCell>
        <mxCell id="Ve-cWkL2a4EjSi6m4Jqw-2" value="(0, N)" style="edgeLabel;html=1;align=center;verticalAlign=middle;resizable=0;points=[];" vertex="1" connectable="0" parent="Ve-cWkL2a4EjSi6m4Jqw-0">
          <mxGeometry x="0.1467" relative="1" as="geometry">
            <mxPoint x="-11.029999999999998" y="-15" as="offset" />
          </mxGeometry>
        </mxCell>
        <mxCell id="Ve-cWkL2a4EjSi6m4Jqw-1" value="(1, M)" style="edgeStyle=orthogonalEdgeStyle;rounded=0;orthogonalLoop=1;jettySize=auto;html=1;entryX=0;entryY=0.5;entryDx=0;entryDy=0;" edge="1" parent="eqqeCOTNaoZ__6hZ0gpq-1" source="-cbBbG7olf2igC_2fDJn-1" target="-cbBbG7olf2igC_2fDJn-0">
          <mxGeometry y="15" relative="1" as="geometry">
            <mxPoint as="offset" />
          </mxGeometry>
        </mxCell>
        <mxCell id="-cbBbG7olf2igC_2fDJn-1" value="ima_ugovor" style="shape=rhombus;perimeter=rhombusPerimeter;whiteSpace=wrap;html=1;align=center;" vertex="1" parent="eqqeCOTNaoZ__6hZ0gpq-1">
          <mxGeometry x="290" y="165" width="120" height="60" as="geometry" />
        </mxCell>
        <mxCell id="uGpxKkweBs8M4jeoCG6X-6" value="je_nadredjena" style="edgeStyle=orthogonalEdgeStyle;rounded=0;orthogonalLoop=1;jettySize=auto;html=1;entryX=0.5;entryY=0;entryDx=0;entryDy=0;" edge="1" parent="eqqeCOTNaoZ__6hZ0gpq-1" source="uGpxKkweBs8M4jeoCG6X-1" target="eqqeCOTNaoZ__6hZ0gpq-2">
          <mxGeometry x="-0.5" y="40" relative="1" as="geometry">
            <mxPoint as="offset" />
          </mxGeometry>
        </mxCell>
        <mxCell id="7aN103Iy42KA0HukAvK2-1" style="edgeStyle=orthogonalEdgeStyle;rounded=0;orthogonalLoop=1;jettySize=auto;html=1;entryX=0;entryY=0.5;entryDx=0;entryDy=0;" edge="1" parent="eqqeCOTNaoZ__6hZ0gpq-1" source="uGpxKkweBs8M4jeoCG6X-1" target="eqqeCOTNaoZ__6hZ0gpq-2">
          <mxGeometry relative="1" as="geometry">
            <Array as="points">
              <mxPoint x="50" y="60" />
              <mxPoint x="50" y="195" />
            </Array>
          </mxGeometry>
        </mxCell>
        <mxCell id="uGpxKkweBs8M4jeoCG6X-1" value="sastoji" style="shape=rhombus;perimeter=rhombusPerimeter;whiteSpace=wrap;html=1;align=center;" vertex="1" parent="eqqeCOTNaoZ__6hZ0gpq-1">
          <mxGeometry x="90" y="30" width="120" height="60" as="geometry" />
        </mxCell>
        <mxCell id="7aN103Iy42KA0HukAvK2-2" value="je_potkompanija" style="text;html=1;strokeColor=none;fillColor=none;align=center;verticalAlign=middle;whiteSpace=wrap;rounded=0;" vertex="1" parent="eqqeCOTNaoZ__6hZ0gpq-1">
          <mxGeometry x="30" y="30" width="40" height="20" as="geometry" />
        </mxCell>
        <mxCell id="7aN103Iy42KA0HukAvK2-5" style="edgeStyle=orthogonalEdgeStyle;rounded=0;orthogonalLoop=1;jettySize=auto;html=1;entryX=0.549;entryY=1.033;entryDx=0;entryDy=0;entryPerimeter=0;exitX=0.5;exitY=0;exitDx=0;exitDy=0;" edge="1" parent="eqqeCOTNaoZ__6hZ0gpq-1" source="qnaZAKbXe2sExS7OtwbW-2" target="eqqeCOTNaoZ__6hZ0gpq-2">
          <mxGeometry relative="1" as="geometry">
            <mxPoint x="250" y="290" as="sourcePoint" />
          </mxGeometry>
        </mxCell>
        <mxCell id="7aN103Iy42KA0HukAvK2-7" value="(1, N)" style="text;html=1;strokeColor=none;fillColor=none;align=center;verticalAlign=middle;whiteSpace=wrap;rounded=0;" vertex="1" parent="eqqeCOTNaoZ__6hZ0gpq-1">
          <mxGeometry x="160" y="225" width="40" height="20" as="geometry" />
        </mxCell>
        <mxCell id="7aN103Iy42KA0HukAvK2-17" style="edgeStyle=orthogonalEdgeStyle;rounded=0;orthogonalLoop=1;jettySize=auto;html=1;entryX=1;entryY=0.5;entryDx=0;entryDy=0;exitX=0;exitY=0.5;exitDx=0;exitDy=0;" edge="1" parent="eqqeCOTNaoZ__6hZ0gpq-1" source="LJlYYRkhnRmaCp836zTc-4" target="qnaZAKbXe2sExS7OtwbW-0">
          <mxGeometry relative="1" as="geometry">
            <mxPoint x="440" y="320" as="sourcePoint" />
            <mxPoint x="380" y="370" as="targetPoint" />
          </mxGeometry>
        </mxCell>
        <mxCell id="7aN103Iy42KA0HukAvK2-18" style="edgeStyle=orthogonalEdgeStyle;rounded=0;orthogonalLoop=1;jettySize=auto;html=1;entryX=0.5;entryY=1;entryDx=0;entryDy=0;exitX=0.5;exitY=0;exitDx=0;exitDy=0;" edge="1" parent="eqqeCOTNaoZ__6hZ0gpq-1" source="LJlYYRkhnRmaCp836zTc-4" target="-cbBbG7olf2igC_2fDJn-0">
          <mxGeometry relative="1" as="geometry">
            <mxPoint x="510" y="330" as="sourcePoint" />
          </mxGeometry>
        </mxCell>
        <mxCell id="7aN103Iy42KA0HukAvK2-19" value="(1, N)" style="text;html=1;strokeColor=none;fillColor=none;align=center;verticalAlign=middle;whiteSpace=wrap;rounded=0;" vertex="1" parent="eqqeCOTNaoZ__6hZ0gpq-1">
          <mxGeometry x="500" y="225" width="40" height="20" as="geometry" />
        </mxCell>
        <mxCell id="7aN103Iy42KA0HukAvK2-21" value="RADNIK" style="whiteSpace=wrap;html=1;align=center;" vertex="1" parent="eqqeCOTNaoZ__6hZ0gpq-1">
          <mxGeometry x="960" y="180" width="100" height="40" as="geometry" />
        </mxCell>
        <mxCell id="7aN103Iy42KA0HukAvK2-23" style="edgeStyle=orthogonalEdgeStyle;rounded=0;orthogonalLoop=1;jettySize=auto;html=1;entryX=0;entryY=0.5;entryDx=0;entryDy=0;" edge="1" parent="eqqeCOTNaoZ__6hZ0gpq-1" source="7aN103Iy42KA0HukAvK2-22" target="7aN103Iy42KA0HukAvK2-21">
          <mxGeometry relative="1" as="geometry" />
        </mxCell>
        <mxCell id="7aN103Iy42KA0HukAvK2-24" style="edgeStyle=orthogonalEdgeStyle;rounded=0;orthogonalLoop=1;jettySize=auto;html=1;entryX=1.033;entryY=0.615;entryDx=0;entryDy=0;entryPerimeter=0;" edge="1" parent="eqqeCOTNaoZ__6hZ0gpq-1" source="7aN103Iy42KA0HukAvK2-22" target="-cbBbG7olf2igC_2fDJn-0">
          <mxGeometry relative="1" as="geometry" />
        </mxCell>
        <mxCell id="7aN103Iy42KA0HukAvK2-22" value="zaposlen" style="shape=rhombus;perimeter=rhombusPerimeter;whiteSpace=wrap;html=1;align=center;" vertex="1" parent="eqqeCOTNaoZ__6hZ0gpq-1">
          <mxGeometry x="580" y="170" width="120" height="60" as="geometry" />
        </mxCell>
        <mxCell id="fD1S1ZeIG5sBqVCxc2l6-0" value="(0, N)" style="text;html=1;strokeColor=none;fillColor=none;align=center;verticalAlign=middle;whiteSpace=wrap;rounded=0;" vertex="1" parent="eqqeCOTNaoZ__6hZ0gpq-1">
          <mxGeometry x="150" y="145" width="40" height="20" as="geometry" />
        </mxCell>
        <mxCell id="fD1S1ZeIG5sBqVCxc2l6-3" value="(0, 1)" style="text;html=1;strokeColor=none;fillColor=none;align=center;verticalAlign=middle;whiteSpace=wrap;rounded=0;" vertex="1" parent="eqqeCOTNaoZ__6hZ0gpq-1">
          <mxGeometry x="55" y="170" width="40" height="20" as="geometry" />
        </mxCell>
        <mxCell id="qnaZAKbXe2sExS7OtwbW-0" value="LEK" style="shape=ext;margin=3;double=1;whiteSpace=wrap;html=1;align=center;" vertex="1" parent="eqqeCOTNaoZ__6hZ0gpq-1">
          <mxGeometry x="105" y="370" width="100" height="40" as="geometry" />
        </mxCell>
        <mxCell id="qnaZAKbXe2sExS7OtwbW-1" value="" style="shape=flexArrow;endArrow=classic;html=1;exitX=0.5;exitY=1;exitDx=0;exitDy=0;entryX=0.5;entryY=0;entryDx=0;entryDy=0;" edge="1" parent="eqqeCOTNaoZ__6hZ0gpq-1" source="qnaZAKbXe2sExS7OtwbW-2" target="qnaZAKbXe2sExS7OtwbW-0">
          <mxGeometry width="50" height="50" relative="1" as="geometry">
            <mxPoint x="145" y="340" as="sourcePoint" />
            <mxPoint x="195" y="290" as="targetPoint" />
          </mxGeometry>
        </mxCell>
        <mxCell id="qnaZAKbXe2sExS7OtwbW-2" value="proizvodi" style="shape=rhombus;double=1;perimeter=rhombusPerimeter;whiteSpace=wrap;html=1;align=center;" vertex="1" parent="eqqeCOTNaoZ__6hZ0gpq-1">
          <mxGeometry x="95" y="270" width="120" height="60" as="geometry" />
        </mxCell>
        <mxCell id="qnaZAKbXe2sExS7OtwbW-3" value="id_lek" style="ellipse;whiteSpace=wrap;html=1;align=center;fontStyle=4;" vertex="1" parent="eqqeCOTNaoZ__6hZ0gpq-1">
          <mxGeometry x="-10" y="380" width="100" height="40" as="geometry" />
        </mxCell>
        <mxCell id="qnaZAKbXe2sExS7OtwbW-5" value="" style="endArrow=none;html=1;entryX=0;entryY=0.25;entryDx=0;entryDy=0;" edge="1" parent="eqqeCOTNaoZ__6hZ0gpq-1" source="qnaZAKbXe2sExS7OtwbW-3" target="qnaZAKbXe2sExS7OtwbW-0">
          <mxGeometry width="50" height="50" relative="1" as="geometry">
            <mxPoint x="90" y="359.28932188134524" as="sourcePoint" />
            <mxPoint x="90" y="309.28932188134524" as="targetPoint" />
          </mxGeometry>
        </mxCell>
        <mxCell id="qnaZAKbXe2sExS7OtwbW-7" value="(0, M)" style="text;html=1;strokeColor=none;fillColor=none;align=center;verticalAlign=middle;whiteSpace=wrap;rounded=0;" vertex="1" parent="eqqeCOTNaoZ__6hZ0gpq-1">
          <mxGeometry x="210" y="370" width="40" height="20" as="geometry" />
        </mxCell>
        <mxCell id="qnaZAKbXe2sExS7OtwbW-8" value="(1, N)" style="text;html=1;strokeColor=none;fillColor=none;align=center;verticalAlign=middle;whiteSpace=wrap;rounded=0;" vertex="1" parent="eqqeCOTNaoZ__6hZ0gpq-1">
          <mxGeometry x="550" y="175" width="40" height="20" as="geometry" />
        </mxCell>
        <mxCell id="qnaZAKbXe2sExS7OtwbW-9" value="(1, 1)" style="text;html=1;strokeColor=none;fillColor=none;align=center;verticalAlign=middle;whiteSpace=wrap;rounded=0;" vertex="1" parent="eqqeCOTNaoZ__6hZ0gpq-1">
          <mxGeometry x="690" y="175" width="40" height="20" as="geometry" />
        </mxCell>
        <mxCell id="MH9GTT56PceFlifXiSEY-0" value="Dom(tip_rad) = {farmaceutski_tehnicar, farmaceutski_inzenjer, komercijalista}" style="text;html=1;strokeColor=none;fillColor=none;align=center;verticalAlign=middle;whiteSpace=wrap;rounded=0;" vertex="1" parent="eqqeCOTNaoZ__6hZ0gpq-1">
          <mxGeometry x="870" y="145" width="40" height="20" as="geometry" />
        </mxCell>
        <mxCell id="p_NcLL7_idzRD7Jz4agc-0" style="edgeStyle=orthogonalEdgeStyle;rounded=0;orthogonalLoop=1;jettySize=auto;html=1;entryX=0.5;entryY=1;entryDx=0;entryDy=0;" edge="1" parent="eqqeCOTNaoZ__6hZ0gpq-1" source="qnbcv9CUJMPuKq4rvGl6-0" target="7aN103Iy42KA0HukAvK2-21">
          <mxGeometry relative="1" as="geometry" />
        </mxCell>
        <mxCell id="qnbcv9CUJMPuKq4rvGl6-0" value="IS - a" style="shape=rhombus;double=1;perimeter=rhombusPerimeter;whiteSpace=wrap;html=1;align=center;" vertex="1" parent="eqqeCOTNaoZ__6hZ0gpq-1">
          <mxGeometry x="950" y="350" width="120" height="60" as="geometry" />
        </mxCell>
        <mxCell id="9KKkrg4gDV4kRkKP4qsz-0" value="FARM_TEHNICAR" style="shape=ext;margin=3;double=1;whiteSpace=wrap;html=1;align=center;" vertex="1" parent="eqqeCOTNaoZ__6hZ0gpq-1">
          <mxGeometry x="770" y="470" width="120" height="40" as="geometry" />
        </mxCell>
        <mxCell id="9KKkrg4gDV4kRkKP4qsz-1" value="FARM_INZENJER" style="shape=ext;margin=3;double=1;whiteSpace=wrap;html=1;align=center;" vertex="1" parent="eqqeCOTNaoZ__6hZ0gpq-1">
          <mxGeometry x="950" y="470" width="120" height="40" as="geometry" />
        </mxCell>
        <mxCell id="9KKkrg4gDV4kRkKP4qsz-2" value="KOMERCIJALISTA" style="shape=ext;margin=3;double=1;whiteSpace=wrap;html=1;align=center;" vertex="1" parent="eqqeCOTNaoZ__6hZ0gpq-1">
          <mxGeometry x="1120" y="470" width="120" height="40" as="geometry" />
        </mxCell>
        <mxCell id="9KKkrg4gDV4kRkKP4qsz-3" value="" style="shape=flexArrow;endArrow=classic;html=1;entryX=0.597;entryY=-0.036;entryDx=0;entryDy=0;entryPerimeter=0;exitX=0.5;exitY=1;exitDx=0;exitDy=0;" edge="1" parent="eqqeCOTNaoZ__6hZ0gpq-1" source="qnbcv9CUJMPuKq4rvGl6-0" target="9KKkrg4gDV4kRkKP4qsz-0">
          <mxGeometry width="50" height="50" relative="1" as="geometry">
            <mxPoint x="940" y="380" as="sourcePoint" />
            <mxPoint x="900" y="320" as="targetPoint" />
            <Array as="points">
              <mxPoint x="842" y="410" />
            </Array>
          </mxGeometry>
        </mxCell>
        <mxCell id="LuKILRcN-byWd7xUQSkW-0" value="" style="shape=flexArrow;endArrow=classic;html=1;entryX=0.5;entryY=0;entryDx=0;entryDy=0;" edge="1" parent="eqqeCOTNaoZ__6hZ0gpq-1" target="9KKkrg4gDV4kRkKP4qsz-1">
          <mxGeometry width="50" height="50" relative="1" as="geometry">
            <mxPoint x="1010" y="410" as="sourcePoint" />
            <mxPoint x="900" y="320" as="targetPoint" />
          </mxGeometry>
        </mxCell>
        <mxCell id="LuKILRcN-byWd7xUQSkW-1" value="" style="shape=flexArrow;endArrow=classic;html=1;entryX=0.553;entryY=-0.019;entryDx=0;entryDy=0;entryPerimeter=0;" edge="1" parent="eqqeCOTNaoZ__6hZ0gpq-1" target="9KKkrg4gDV4kRkKP4qsz-2">
          <mxGeometry width="50" height="50" relative="1" as="geometry">
            <mxPoint x="1010" y="410" as="sourcePoint" />
            <mxPoint x="900" y="320" as="targetPoint" />
            <Array as="points">
              <mxPoint x="1186" y="410" />
            </Array>
          </mxGeometry>
        </mxCell>
        <mxCell id="LuKILRcN-byWd7xUQSkW-2" value="(1, 1)" style="text;html=1;strokeColor=none;fillColor=none;align=center;verticalAlign=middle;whiteSpace=wrap;rounded=0;" vertex="1" parent="eqqeCOTNaoZ__6hZ0gpq-1">
          <mxGeometry x="1010" y="225" width="40" height="20" as="geometry" />
        </mxCell>
        <mxCell id="LuKILRcN-byWd7xUQSkW-3" value="&lt;u&gt;jmbg_fr&lt;/u&gt;" style="ellipse;whiteSpace=wrap;html=1;align=center;" vertex="1" parent="eqqeCOTNaoZ__6hZ0gpq-1">
          <mxGeometry x="1070" y="105" width="100" height="40" as="geometry" />
        </mxCell>
        <mxCell id="LuKILRcN-byWd7xUQSkW-5" value="" style="endArrow=none;html=1;entryX=0.5;entryY=1;entryDx=0;entryDy=0;exitX=1;exitY=0.25;exitDx=0;exitDy=0;" edge="1" parent="eqqeCOTNaoZ__6hZ0gpq-1" source="7aN103Iy42KA0HukAvK2-21" target="LuKILRcN-byWd7xUQSkW-3">
          <mxGeometry width="50" height="50" relative="1" as="geometry">
            <mxPoint x="1110" y="220" as="sourcePoint" />
            <mxPoint x="1160" y="170" as="targetPoint" />
          </mxGeometry>
        </mxCell>
        <mxCell id="LuKILRcN-byWd7xUQSkW-6" value="tip_rad" style="ellipse;whiteSpace=wrap;html=1;align=center;" vertex="1" parent="eqqeCOTNaoZ__6hZ0gpq-1">
          <mxGeometry x="960" y="80" width="100" height="40" as="geometry" />
        </mxCell>
        <mxCell id="LuKILRcN-byWd7xUQSkW-7" value="" style="endArrow=none;html=1;" edge="1" parent="eqqeCOTNaoZ__6hZ0gpq-1" source="LuKILRcN-byWd7xUQSkW-6">
          <mxGeometry width="50" height="50" relative="1" as="geometry">
            <mxPoint x="1010" y="170" as="sourcePoint" />
            <mxPoint x="1010" y="180" as="targetPoint" />
          </mxGeometry>
        </mxCell>
        <mxCell id="LJlYYRkhnRmaCp836zTc-0" value="tip_rad" style="text;html=1;strokeColor=none;fillColor=none;align=center;verticalAlign=middle;whiteSpace=wrap;rounded=0;" vertex="1" parent="eqqeCOTNaoZ__6hZ0gpq-1">
          <mxGeometry x="1030" y="340" width="40" height="20" as="geometry" />
        </mxCell>
        <mxCell id="LJlYYRkhnRmaCp836zTc-1" value="broj_lic_fi" style="ellipse;whiteSpace=wrap;html=1;align=center;" vertex="1" parent="eqqeCOTNaoZ__6hZ0gpq-1">
          <mxGeometry x="960" y="550" width="100" height="40" as="geometry" />
        </mxCell>
        <mxCell id="LJlYYRkhnRmaCp836zTc-2" value="" style="endArrow=none;html=1;entryX=0.551;entryY=1.033;entryDx=0;entryDy=0;entryPerimeter=0;exitX=0.5;exitY=0;exitDx=0;exitDy=0;" edge="1" parent="eqqeCOTNaoZ__6hZ0gpq-1" source="LJlYYRkhnRmaCp836zTc-1" target="9KKkrg4gDV4kRkKP4qsz-1">
          <mxGeometry width="50" height="50" relative="1" as="geometry">
            <mxPoint x="1000" y="610" as="sourcePoint" />
            <mxPoint x="1050" y="560" as="targetPoint" />
          </mxGeometry>
        </mxCell>
        <mxCell id="LJlYYRkhnRmaCp836zTc-4" value="ima_u_ponudi" style="shape=associativeEntity;whiteSpace=wrap;html=1;align=center;" vertex="1" parent="eqqeCOTNaoZ__6hZ0gpq-1">
          <mxGeometry x="430" y="360" width="140" height="60" as="geometry" />
        </mxCell>
        <mxCell id="LJlYYRkhnRmaCp836zTc-6" style="edgeStyle=orthogonalEdgeStyle;rounded=0;orthogonalLoop=1;jettySize=auto;html=1;entryX=0;entryY=0.5;entryDx=0;entryDy=0;" edge="1" parent="eqqeCOTNaoZ__6hZ0gpq-1" source="LJlYYRkhnRmaCp836zTc-5" target="9KKkrg4gDV4kRkKP4qsz-0">
          <mxGeometry relative="1" as="geometry" />
        </mxCell>
        <mxCell id="LJlYYRkhnRmaCp836zTc-7" style="edgeStyle=orthogonalEdgeStyle;rounded=0;orthogonalLoop=1;jettySize=auto;html=1;entryX=0.5;entryY=1;entryDx=0;entryDy=0;" edge="1" parent="eqqeCOTNaoZ__6hZ0gpq-1" source="LJlYYRkhnRmaCp836zTc-5" target="LJlYYRkhnRmaCp836zTc-4">
          <mxGeometry relative="1" as="geometry" />
        </mxCell>
        <mxCell id="LJlYYRkhnRmaCp836zTc-5" value="izdaje" style="shape=rhombus;perimeter=rhombusPerimeter;whiteSpace=wrap;html=1;align=center;" vertex="1" parent="eqqeCOTNaoZ__6hZ0gpq-1">
          <mxGeometry x="440" y="460" width="120" height="60" as="geometry" />
        </mxCell>
        <mxCell id="LJlYYRkhnRmaCp836zTc-8" value="(0, N)" style="text;html=1;strokeColor=none;fillColor=none;align=center;verticalAlign=middle;whiteSpace=wrap;rounded=0;" vertex="1" parent="eqqeCOTNaoZ__6hZ0gpq-1">
          <mxGeometry x="730" y="470" width="40" height="20" as="geometry" />
        </mxCell>
        <mxCell id="LJlYYRkhnRmaCp836zTc-9" value="&lt;span style=&quot;color: rgb(0 , 0 , 0) ; font-family: &amp;#34;helvetica&amp;#34; ; font-size: 12px ; font-style: normal ; font-weight: 400 ; letter-spacing: normal ; text-align: center ; text-indent: 0px ; text-transform: none ; word-spacing: 0px ; background-color: rgb(248 , 249 , 250) ; display: inline ; float: none&quot;&gt;(0, M)&lt;/span&gt;" style="text;whiteSpace=wrap;html=1;" vertex="1" parent="eqqeCOTNaoZ__6hZ0gpq-1">
          <mxGeometry x="510" y="430" width="60" height="30" as="geometry" />
        </mxCell>
        <mxCell id="9PtDu7tL0mN-PYT9Bxvw-0" value="NABAVKA" style="shape=ext;margin=3;double=1;whiteSpace=wrap;html=1;align=center;" vertex="1" parent="eqqeCOTNaoZ__6hZ0gpq-1">
          <mxGeometry x="350" y="640" width="100" height="40" as="geometry" />
        </mxCell>
        <mxCell id="9PtDu7tL0mN-PYT9Bxvw-6" style="edgeStyle=orthogonalEdgeStyle;rounded=0;orthogonalLoop=1;jettySize=auto;html=1;" edge="1" parent="eqqeCOTNaoZ__6hZ0gpq-1" source="9PtDu7tL0mN-PYT9Bxvw-2" target="9KKkrg4gDV4kRkKP4qsz-2">
          <mxGeometry relative="1" as="geometry" />
        </mxCell>
        <mxCell id="9PtDu7tL0mN-PYT9Bxvw-2" value="nabavlja" style="shape=rhombus;double=1;perimeter=rhombusPerimeter;whiteSpace=wrap;html=1;align=center;" vertex="1" parent="eqqeCOTNaoZ__6hZ0gpq-1">
          <mxGeometry x="540" y="630" width="120" height="60" as="geometry" />
        </mxCell>
        <mxCell id="9PtDu7tL0mN-PYT9Bxvw-8" style="edgeStyle=orthogonalEdgeStyle;rounded=0;orthogonalLoop=1;jettySize=auto;html=1;entryX=0.5;entryY=1;entryDx=0;entryDy=0;exitX=0.5;exitY=0;exitDx=0;exitDy=0;" edge="1" parent="eqqeCOTNaoZ__6hZ0gpq-1" source="9PtDu7tL0mN-PYT9Bxvw-3" target="qnaZAKbXe2sExS7OtwbW-0">
          <mxGeometry relative="1" as="geometry" />
        </mxCell>
        <mxCell id="9PtDu7tL0mN-PYT9Bxvw-3" value="se_nabavlja" style="shape=rhombus;double=1;perimeter=rhombusPerimeter;whiteSpace=wrap;html=1;align=center;" vertex="1" parent="eqqeCOTNaoZ__6hZ0gpq-1">
          <mxGeometry x="95" y="630" width="120" height="60" as="geometry" />
        </mxCell>
        <mxCell id="9PtDu7tL0mN-PYT9Bxvw-5" value="" style="shape=flexArrow;endArrow=classic;html=1;exitX=0;exitY=0.5;exitDx=0;exitDy=0;" edge="1" parent="eqqeCOTNaoZ__6hZ0gpq-1" source="9PtDu7tL0mN-PYT9Bxvw-2" target="9PtDu7tL0mN-PYT9Bxvw-0">
          <mxGeometry width="50" height="50" relative="1" as="geometry">
            <mxPoint x="600" y="540" as="sourcePoint" />
            <mxPoint x="650" y="490" as="targetPoint" />
          </mxGeometry>
        </mxCell>
        <mxCell id="9PtDu7tL0mN-PYT9Bxvw-7" value="" style="shape=flexArrow;endArrow=classic;html=1;exitX=1;exitY=0.5;exitDx=0;exitDy=0;entryX=0;entryY=0.5;entryDx=0;entryDy=0;" edge="1" parent="eqqeCOTNaoZ__6hZ0gpq-1" source="9PtDu7tL0mN-PYT9Bxvw-3" target="9PtDu7tL0mN-PYT9Bxvw-0">
          <mxGeometry width="50" height="50" relative="1" as="geometry">
            <mxPoint x="630" y="540" as="sourcePoint" />
            <mxPoint x="680" y="490" as="targetPoint" />
          </mxGeometry>
        </mxCell>
        <mxCell id="9PtDu7tL0mN-PYT9Bxvw-9" value="(0, M)" style="text;html=1;strokeColor=none;fillColor=none;align=center;verticalAlign=middle;whiteSpace=wrap;rounded=0;" vertex="1" parent="eqqeCOTNaoZ__6hZ0gpq-1">
          <mxGeometry x="165" y="410" width="40" height="20" as="geometry" />
        </mxCell>
        <mxCell id="9PtDu7tL0mN-PYT9Bxvw-10" value="(0, N)" style="text;html=1;strokeColor=none;fillColor=none;align=center;verticalAlign=middle;whiteSpace=wrap;rounded=0;" vertex="1" parent="eqqeCOTNaoZ__6hZ0gpq-1">
          <mxGeometry x="1130" y="520" width="40" height="20" as="geometry" />
        </mxCell>
        <mxCell id="9PtDu7tL0mN-PYT9Bxvw-12" value="datum_nab" style="ellipse;whiteSpace=wrap;html=1;align=center;fontStyle=4;" vertex="1" parent="eqqeCOTNaoZ__6hZ0gpq-1">
          <mxGeometry x="350" y="750" width="100" height="40" as="geometry" />
        </mxCell>
        <mxCell id="9PtDu7tL0mN-PYT9Bxvw-14" value="" style="endArrow=none;html=1;" edge="1" parent="eqqeCOTNaoZ__6hZ0gpq-1" source="9PtDu7tL0mN-PYT9Bxvw-12">
          <mxGeometry width="50" height="50" relative="1" as="geometry">
            <mxPoint x="400" y="729.2893218813452" as="sourcePoint" />
            <mxPoint x="400" y="679.2893218813452" as="targetPoint" />
          </mxGeometry>
        </mxCell>
        <mxCell id="9PtDu7tL0mN-PYT9Bxvw-15" value="dat_istek_ugi" style="ellipse;whiteSpace=wrap;html=1;align=center;" vertex="1" parent="eqqeCOTNaoZ__6hZ0gpq-1">
          <mxGeometry x="350" y="90" width="100" height="40" as="geometry" />
        </mxCell>
        <mxCell id="9PtDu7tL0mN-PYT9Bxvw-16" value="dat_sklap_ug" style="ellipse;whiteSpace=wrap;html=1;align=center;" vertex="1" parent="eqqeCOTNaoZ__6hZ0gpq-1">
          <mxGeometry x="250" y="90" width="100" height="40" as="geometry" />
        </mxCell>
        <mxCell id="9PtDu7tL0mN-PYT9Bxvw-17" value="" style="endArrow=none;html=1;entryX=0.5;entryY=1;entryDx=0;entryDy=0;exitX=0.5;exitY=0;exitDx=0;exitDy=0;" edge="1" parent="eqqeCOTNaoZ__6hZ0gpq-1" source="-cbBbG7olf2igC_2fDJn-1" target="9PtDu7tL0mN-PYT9Bxvw-16">
          <mxGeometry width="50" height="50" relative="1" as="geometry">
            <mxPoint x="350" y="144.28932188134524" as="sourcePoint" />
            <mxPoint x="350" y="94.28932188134524" as="targetPoint" />
          </mxGeometry>
        </mxCell>
        <mxCell id="9PtDu7tL0mN-PYT9Bxvw-18" value="" style="endArrow=none;html=1;entryX=0.5;entryY=1;entryDx=0;entryDy=0;exitX=0.5;exitY=0;exitDx=0;exitDy=0;" edge="1" parent="eqqeCOTNaoZ__6hZ0gpq-1" source="-cbBbG7olf2igC_2fDJn-1" target="9PtDu7tL0mN-PYT9Bxvw-15">
          <mxGeometry width="50" height="50" relative="1" as="geometry">
            <mxPoint x="350" y="160" as="sourcePoint" />
            <mxPoint x="520" y="100" as="targetPoint" />
          </mxGeometry>
        </mxCell>
        <mxCell id="9PtDu7tL0mN-PYT9Bxvw-19" value="&lt;u&gt;id_fk&lt;/u&gt;" style="ellipse;whiteSpace=wrap;html=1;align=center;" vertex="1" parent="eqqeCOTNaoZ__6hZ0gpq-1">
          <mxGeometry x="-80" y="215" width="100" height="40" as="geometry" />
        </mxCell>
        <mxCell id="9PtDu7tL0mN-PYT9Bxvw-20" value="" style="endArrow=none;html=1;entryX=0;entryY=0.75;entryDx=0;entryDy=0;" edge="1" parent="eqqeCOTNaoZ__6hZ0gpq-1" source="9PtDu7tL0mN-PYT9Bxvw-19" target="eqqeCOTNaoZ__6hZ0gpq-2">
          <mxGeometry width="50" height="50" relative="1" as="geometry">
            <mxPoint x="-40" y="295" as="sourcePoint" />
            <mxPoint x="30.710678118654755" y="245" as="targetPoint" />
          </mxGeometry>
        </mxCell>
        <mxCell id="9PtDu7tL0mN-PYT9Bxvw-21" value="naz_fk" style="ellipse;whiteSpace=wrap;html=1;align=center;" vertex="1" parent="eqqeCOTNaoZ__6hZ0gpq-1">
          <mxGeometry x="-80" y="280" width="100" height="40" as="geometry" />
        </mxCell>
        <mxCell id="9PtDu7tL0mN-PYT9Bxvw-22" value="" style="endArrow=none;html=1;entryX=0.25;entryY=1;entryDx=0;entryDy=0;" edge="1" parent="eqqeCOTNaoZ__6hZ0gpq-1" source="9PtDu7tL0mN-PYT9Bxvw-21" target="eqqeCOTNaoZ__6hZ0gpq-2">
          <mxGeometry width="50" height="50" relative="1" as="geometry">
            <mxPoint x="55" y="350" as="sourcePoint" />
            <mxPoint x="125.71067811865476" y="300" as="targetPoint" />
          </mxGeometry>
        </mxCell>
        <mxCell id="9PtDu7tL0mN-PYT9Bxvw-23" value="&lt;u&gt;id_apot&lt;/u&gt;" style="ellipse;whiteSpace=wrap;html=1;align=center;" vertex="1" parent="eqqeCOTNaoZ__6hZ0gpq-1">
          <mxGeometry x="480" y="100" width="100" height="40" as="geometry" />
        </mxCell>
        <mxCell id="9PtDu7tL0mN-PYT9Bxvw-24" value="naz_apot" style="ellipse;whiteSpace=wrap;html=1;align=center;" vertex="1" parent="eqqeCOTNaoZ__6hZ0gpq-1">
          <mxGeometry x="580" y="80" width="100" height="40" as="geometry" />
        </mxCell>
        <mxCell id="9PtDu7tL0mN-PYT9Bxvw-25" value="adr_apot" style="ellipse;whiteSpace=wrap;html=1;align=center;" vertex="1" parent="eqqeCOTNaoZ__6hZ0gpq-1">
          <mxGeometry x="680" y="80" width="100" height="40" as="geometry" />
        </mxCell>
        <mxCell id="9PtDu7tL0mN-PYT9Bxvw-26" value="" style="endArrow=none;html=1;entryX=0.5;entryY=1;entryDx=0;entryDy=0;exitX=0.5;exitY=0;exitDx=0;exitDy=0;" edge="1" parent="eqqeCOTNaoZ__6hZ0gpq-1" source="-cbBbG7olf2igC_2fDJn-0" target="9PtDu7tL0mN-PYT9Bxvw-23">
          <mxGeometry width="50" height="50" relative="1" as="geometry">
            <mxPoint x="500" y="200" as="sourcePoint" />
            <mxPoint x="550" y="150" as="targetPoint" />
          </mxGeometry>
        </mxCell>
        <mxCell id="9PtDu7tL0mN-PYT9Bxvw-27" value="" style="endArrow=none;html=1;entryX=0.5;entryY=1;entryDx=0;entryDy=0;exitX=0.75;exitY=0;exitDx=0;exitDy=0;" edge="1" parent="eqqeCOTNaoZ__6hZ0gpq-1" source="-cbBbG7olf2igC_2fDJn-0" target="9PtDu7tL0mN-PYT9Bxvw-24">
          <mxGeometry width="50" height="50" relative="1" as="geometry">
            <mxPoint x="570" y="190" as="sourcePoint" />
            <mxPoint x="620" y="140" as="targetPoint" />
          </mxGeometry>
        </mxCell>
        <mxCell id="9PtDu7tL0mN-PYT9Bxvw-28" value="" style="endArrow=none;html=1;entryX=0.5;entryY=1;entryDx=0;entryDy=0;exitX=0;exitY=0.5;exitDx=0;exitDy=0;" edge="1" parent="eqqeCOTNaoZ__6hZ0gpq-1" source="qnaZAKbXe2sExS7OtwbW-8" target="9PtDu7tL0mN-PYT9Bxvw-25">
          <mxGeometry width="50" height="50" relative="1" as="geometry">
            <mxPoint x="670" y="200" as="sourcePoint" />
            <mxPoint x="720" y="150" as="targetPoint" />
          </mxGeometry>
        </mxCell>
        <mxCell id="9PtDu7tL0mN-PYT9Bxvw-29" value="ime_fr" style="ellipse;whiteSpace=wrap;html=1;align=center;" vertex="1" parent="eqqeCOTNaoZ__6hZ0gpq-1">
          <mxGeometry x="1160" y="150" width="100" height="40" as="geometry" />
        </mxCell>
        <mxCell id="9PtDu7tL0mN-PYT9Bxvw-30" value="prz_fr" style="ellipse;whiteSpace=wrap;html=1;align=center;" vertex="1" parent="eqqeCOTNaoZ__6hZ0gpq-1">
          <mxGeometry x="1150" y="215" width="100" height="40" as="geometry" />
        </mxCell>
        <mxCell id="9PtDu7tL0mN-PYT9Bxvw-31" value="plt_fr" style="ellipse;whiteSpace=wrap;html=1;align=center;" vertex="1" parent="eqqeCOTNaoZ__6hZ0gpq-1">
          <mxGeometry x="1100" y="270" width="100" height="40" as="geometry" />
        </mxCell>
        <mxCell id="9PtDu7tL0mN-PYT9Bxvw-32" value="" style="endArrow=none;html=1;entryX=0;entryY=0.5;entryDx=0;entryDy=0;exitX=1;exitY=0.5;exitDx=0;exitDy=0;" edge="1" parent="eqqeCOTNaoZ__6hZ0gpq-1" source="7aN103Iy42KA0HukAvK2-21" target="9PtDu7tL0mN-PYT9Bxvw-29">
          <mxGeometry width="50" height="50" relative="1" as="geometry">
            <mxPoint x="1070" y="210" as="sourcePoint" />
            <mxPoint x="1130" y="155" as="targetPoint" />
          </mxGeometry>
        </mxCell>
        <mxCell id="9PtDu7tL0mN-PYT9Bxvw-33" value="" style="endArrow=none;html=1;exitX=1;exitY=0.75;exitDx=0;exitDy=0;" edge="1" parent="eqqeCOTNaoZ__6hZ0gpq-1" source="7aN103Iy42KA0HukAvK2-21" target="9PtDu7tL0mN-PYT9Bxvw-30">
          <mxGeometry width="50" height="50" relative="1" as="geometry">
            <mxPoint x="1080" y="220" as="sourcePoint" />
            <mxPoint x="1140" y="165" as="targetPoint" />
          </mxGeometry>
        </mxCell>
        <mxCell id="9PtDu7tL0mN-PYT9Bxvw-34" value="" style="endArrow=none;html=1;entryX=0.067;entryY=0.258;entryDx=0;entryDy=0;entryPerimeter=0;" edge="1" parent="eqqeCOTNaoZ__6hZ0gpq-1" source="7aN103Iy42KA0HukAvK2-21" target="9PtDu7tL0mN-PYT9Bxvw-31">
          <mxGeometry width="50" height="50" relative="1" as="geometry">
            <mxPoint x="1090" y="230" as="sourcePoint" />
            <mxPoint x="1150" y="175" as="targetPoint" />
          </mxGeometry>
        </mxCell>
        <mxCell id="9PtDu7tL0mN-PYT9Bxvw-35" value="naz_lek" style="ellipse;whiteSpace=wrap;html=1;align=center;" vertex="1" parent="eqqeCOTNaoZ__6hZ0gpq-1">
          <mxGeometry x="-50" y="440" width="100" height="40" as="geometry" />
        </mxCell>
        <mxCell id="9PtDu7tL0mN-PYT9Bxvw-36" value="" style="endArrow=none;html=1;exitX=1;exitY=0.5;exitDx=0;exitDy=0;entryX=0;entryY=0.75;entryDx=0;entryDy=0;" edge="1" parent="eqqeCOTNaoZ__6hZ0gpq-1" source="9PtDu7tL0mN-PYT9Bxvw-35" target="qnaZAKbXe2sExS7OtwbW-0">
          <mxGeometry width="50" height="50" relative="1" as="geometry">
            <mxPoint x="450" y="540" as="sourcePoint" />
            <mxPoint x="500" y="490" as="targetPoint" />
          </mxGeometry>
        </mxCell>
        <mxCell id="9PtDu7tL0mN-PYT9Bxvw-37" value="kol_nab" style="ellipse;whiteSpace=wrap;html=1;align=center;" vertex="1" parent="eqqeCOTNaoZ__6hZ0gpq-1">
          <mxGeometry x="240" y="750" width="100" height="40" as="geometry" />
        </mxCell>
        <mxCell id="9PtDu7tL0mN-PYT9Bxvw-38" value="nab_cena" style="ellipse;whiteSpace=wrap;html=1;align=center;" vertex="1" parent="eqqeCOTNaoZ__6hZ0gpq-1">
          <mxGeometry x="470" y="750" width="100" height="40" as="geometry" />
        </mxCell>
        <mxCell id="9PtDu7tL0mN-PYT9Bxvw-39" value="" style="endArrow=none;html=1;exitX=0.733;exitY=0.029;exitDx=0;exitDy=0;exitPerimeter=0;entryX=0.25;entryY=1;entryDx=0;entryDy=0;" edge="1" parent="eqqeCOTNaoZ__6hZ0gpq-1" source="9PtDu7tL0mN-PYT9Bxvw-37" target="9PtDu7tL0mN-PYT9Bxvw-0">
          <mxGeometry width="50" height="50" relative="1" as="geometry">
            <mxPoint x="410" y="740.71" as="sourcePoint" />
            <mxPoint x="410" y="669.9993218813452" as="targetPoint" />
          </mxGeometry>
        </mxCell>
        <mxCell id="9PtDu7tL0mN-PYT9Bxvw-40" value="" style="endArrow=none;html=1;entryX=0.75;entryY=1;entryDx=0;entryDy=0;exitX=0.5;exitY=0;exitDx=0;exitDy=0;" edge="1" parent="eqqeCOTNaoZ__6hZ0gpq-1" source="9PtDu7tL0mN-PYT9Bxvw-38" target="9PtDu7tL0mN-PYT9Bxvw-0">
          <mxGeometry width="50" height="50" relative="1" as="geometry">
            <mxPoint x="420" y="770" as="sourcePoint" />
            <mxPoint x="420" y="699.2893218813451" as="targetPoint" />
          </mxGeometry>
        </mxCell>
      </root>
    </mxGraphModel>
  </diagram>
</mxfile>
